<?xml version="1.0" standalone="no"?>
<svg xmlns="http://www.w3.org/2000/svg" viewBox="0 0 161.52 36" width="161.52" height="36"><g fill="#3fd3b7" color="#3fd3b7" transform="translate(0 3.9999999999999982) scale(0.2800001)"><svg width="100.0" height="100.0" x="0.0" y="0.0" viewBox="0 0 100 100"><g><path d="M74.6,71.3c5.3-5.6,8.7-13.1,9.1-21.3h-9.1V71.3z"></path><path d="M82.5,39.1H41.7c-1,0-1.8-0.8-1.8-1.8c0-1,0.8-1.8,1.8-1.8h39.5c-1-2.4-2.2-4.7-3.7-6.8H47.6C47,30,45.6,31,44,31   c-2.2,0-4.1-1.8-4.1-4.1s1.8-4.1,4.1-4.1c1.6,0,3,0.9,3.6,2.3h26.9c-2.7-2.9-5.9-5.3-9.4-7H34.9c-0.9,0.4-1.8,0.9-2.6,1.4v26.9   h28.4c1,0,1.8,0.8,1.8,1.8v11.4c2.1,0.7,3.6,2.7,3.6,5.1c0,3-2.4,5.4-5.4,5.4c-3,0-5.4-2.4-5.4-5.4c0-2.4,1.5-4.4,3.6-5.1V50H30.5   c-1,0-1.8-0.8-1.8-1.8V22.1c-1.6,1.3-3.1,2.7-4.4,4.3v42h12.4c1,0,1.8,0.8,1.8,1.8v9.8c3.6,1.3,7.5,2,11.5,2c5.8,0,11.2-1.5,16-4   H48.6c-1,0-1.8-0.8-1.8-1.8v-16H36.4c-0.7,1.3-2,2.3-3.6,2.3c-2.2,0-4.1-1.8-4.1-4.1c0-2.2,1.8-4.1,4.1-4.1c1.6,0,3,0.9,3.6,2.3   h12.2c1,0,1.8,0.8,1.8,1.8v16H71V48.2c0-1,0.8-1.8,1.8-1.8h10.9C83.6,43.9,83.2,41.4,82.5,39.1z"></path><path d="M34.9,78.4v-6.4h-8.8C28.6,74.5,31.6,76.7,34.9,78.4z"></path><path d="M20.7,64.9V31.5c-2.8,4.9-4.4,10.6-4.4,16.7S17.9,60,20.7,64.9z"></path></g></svg></g><path fill="#f5f5f5" fill-rule="nonzero" d="M7.85 16.97L0.10 16.97Q0 16.97 0 16.85L0 16.85L0.02 0.36Q0.02 0.26 0.12 0.26L0.12 0.26L7.82 0.26Q7.92 0.26 7.92 0.38L7.92 0.38L7.92 3.07Q7.92 3.17 7.82 3.17L7.82 3.17L2.90 3.17L2.90 6.91L7.82 6.91Q7.92 6.91 7.92 7.01L7.92 7.01L7.94 9.72Q7.94 9.82 7.85 9.82L7.85 9.82L2.90 9.82L2.90 14.02L7.85 14.02Q7.94 14.02 7.94 14.14L7.94 14.14L7.94 16.87Q7.94 16.97 7.85 16.97L7.85 16.97ZM11.52 16.97L8.83 16.97Q8.74 16.97 8.76 16.85L8.76 16.85L11.50 8.28L8.81 0.36Q8.78 0.26 8.88 0.26L8.88 0.26L11.57 0.26Q11.69 0.26 11.71 0.36L11.71 0.36L13.32 6.07L14.95 0.36Q14.98 0.26 15.10 0.26L15.10 0.26L17.76 0.26Q17.86 0.26 17.83 0.36L17.83 0.36L15.14 8.26L17.86 16.85Q17.90 16.97 17.78 16.97L17.78 16.97L15.10 16.97Q15.00 16.97 14.95 16.85L14.95 16.85L13.32 10.66L11.66 16.85Q11.64 16.97 11.52 16.97L11.52 16.97ZM22.08 16.97L19.39 16.97Q19.27 16.97 19.27 16.85L19.27 16.85L19.32 0.36Q19.32 0.26 19.42 0.26L19.42 0.26L24.02 0.26Q26.23 0.26 27.52 1.61Q28.80 2.95 28.80 5.26L28.80 5.26Q28.80 6.96 28.13 8.21Q27.46 9.46 26.38 10.13Q25.30 10.80 24.02 10.80L24.02 10.80L22.20 10.80L22.20 16.85Q22.20 16.97 22.08 16.97L22.08 16.97ZM22.20 3.14L22.20 7.90L24.02 7.90Q24.79 7.90 25.36 7.16Q25.92 6.43 25.92 5.26L25.92 5.26Q25.92 4.32 25.42 3.72Q24.91 3.12 24.02 3.12L24.02 3.12L22.20 3.14ZM38.28 16.97L30.53 16.97Q30.43 16.97 30.43 16.85L30.43 16.85L30.46 0.36Q30.46 0.26 30.55 0.26L30.55 0.26L38.26 0.26Q38.35 0.26 38.35 0.38L38.35 0.38L38.35 3.07Q38.35 3.17 38.26 3.17L38.26 3.17L33.34 3.17L33.34 6.91L38.26 6.91Q38.35 6.91 38.35 7.01L38.35 7.01L38.38 9.72Q38.38 9.82 38.28 9.82L38.28 9.82L33.34 9.82L33.34 14.02L38.28 14.02Q38.38 14.02 38.38 14.14L38.38 14.14L38.38 16.87Q38.38 16.97 38.28 16.97L38.28 16.97ZM43.32 16.97L40.61 16.97Q40.51 16.97 40.51 16.85L40.51 16.85L40.56 0.36Q40.56 0.26 40.66 0.26L40.66 0.26L45.50 0.26Q46.80 0.26 47.89 0.90Q48.98 1.54 49.63 2.60Q50.28 3.67 50.28 5.02L50.28 5.02Q50.28 5.90 50.02 6.61Q49.75 7.32 49.39 7.81Q49.03 8.30 48.74 8.54L48.74 8.54Q50.04 9.98 50.04 11.93L50.04 11.93L50.06 16.85Q50.06 16.97 49.94 16.97L49.94 16.97L47.23 16.97Q47.14 16.97 47.14 16.90L47.14 16.90L47.14 11.93Q47.14 11.06 46.52 10.43Q45.91 9.79 45.02 9.79L45.02 9.79L43.44 9.79L43.42 16.85Q43.42 16.97 43.32 16.97L43.32 16.97ZM43.44 3.14L43.44 6.91L45.50 6.91Q46.25 6.91 46.82 6.36Q47.40 5.81 47.40 5.02L47.40 5.02Q47.40 4.25 46.84 3.70Q46.27 3.14 45.50 3.14L45.50 3.14L43.44 3.14ZM56.71 16.97L54 16.97Q53.90 16.97 53.90 16.85L53.90 16.85L53.90 3.17L50.78 3.17Q50.66 3.17 50.66 3.05L50.66 3.05L50.69 0.36Q50.69 0.26 50.78 0.26L50.78 0.26L59.90 0.26Q60.02 0.26 60.02 0.36L60.02 0.36L60.02 3.05Q60.02 3.17 59.93 3.17L59.93 3.17L56.78 3.17L56.81 16.85Q56.81 16.97 56.71 16.97L56.71 16.97ZM69.17 17.21L69.17 17.21Q67.85 17.21 66.78 16.55Q65.71 15.89 65.09 14.78Q64.46 13.68 64.46 12.31L64.46 12.31L64.49 4.82Q64.49 3.50 65.10 2.41Q65.71 1.32 66.78 0.66Q67.85 0 69.17 0L69.17 0Q70.49 0 71.54 0.65Q72.60 1.30 73.22 2.39Q73.85 3.48 73.85 4.82L73.85 4.82L73.85 5.93Q73.85 6.02 73.75 6.02L73.75 6.02L71.06 6.02Q70.97 6.02 70.97 5.93L70.97 5.93L70.97 4.82Q70.97 4.03 70.45 3.46Q69.94 2.88 69.17 2.88L69.17 2.88Q68.30 2.88 67.85 3.47Q67.39 4.06 67.39 4.82L67.39 4.82L67.39 12.31Q67.39 13.20 67.91 13.75Q68.42 14.30 69.17 14.30L69.17 14.30Q69.94 14.30 70.45 13.69Q70.97 13.08 70.97 12.31L70.97 12.31L70.97 11.21Q70.97 11.11 71.06 11.11L71.06 11.11L73.78 11.11Q73.87 11.11 73.87 11.21L73.87 11.21L73.87 12.31Q73.87 13.68 73.24 14.78Q72.60 15.89 71.54 16.55Q70.49 17.21 69.17 17.21ZM78.43 16.97L75.72 16.97Q75.62 16.97 75.62 16.85L75.62 16.85L75.67 0.36Q75.67 0.26 75.77 0.26L75.77 0.26L80.62 0.26Q81.91 0.26 83.00 0.90Q84.10 1.54 84.74 2.60Q85.39 3.67 85.39 5.02L85.39 5.02Q85.39 5.90 85.13 6.61Q84.86 7.32 84.50 7.81Q84.14 8.30 83.86 8.54L83.86 8.54Q85.15 9.98 85.15 11.93L85.15 11.93L85.18 16.85Q85.18 16.97 85.06 16.97L85.06 16.97L82.34 16.97Q82.25 16.97 82.25 16.90L82.25 16.90L82.25 11.93Q82.25 11.06 81.64 10.43Q81.02 9.79 80.14 9.79L80.14 9.79L78.55 9.79L78.53 16.85Q78.53 16.97 78.43 16.97L78.43 16.97ZM78.55 3.14L78.55 6.91L80.62 6.91Q81.36 6.91 81.94 6.36Q82.51 5.81 82.51 5.02L82.51 5.02Q82.51 4.25 81.95 3.70Q81.38 3.14 80.62 3.14L80.62 3.14L78.55 3.14ZM91.46 16.97L88.70 16.97Q88.63 16.97 88.63 16.87L88.63 16.87L88.66 10.06L85.44 0.36Q85.42 0.26 85.51 0.26L85.51 0.26L88.18 0.26Q88.30 0.26 88.32 0.36L88.32 0.36L90.10 6.82L91.90 0.36Q91.92 0.26 92.02 0.26L92.02 0.26L94.70 0.26Q94.80 0.26 94.78 0.36L94.78 0.36L91.54 9.96L91.56 16.87Q91.56 16.97 91.46 16.97L91.46 16.97ZM98.90 16.97L96.22 16.97Q96.10 16.97 96.10 16.85L96.10 16.85L96.14 0.36Q96.14 0.26 96.24 0.26L96.24 0.26L100.85 0.26Q103.06 0.26 104.34 1.61Q105.62 2.95 105.62 5.26L105.62 5.26Q105.62 6.96 104.95 8.21Q104.28 9.46 103.20 10.13Q102.12 10.80 100.85 10.80L100.85 10.80L99.02 10.80L99.02 16.85Q99.02 16.97 98.90 16.97L98.90 16.97ZM99.02 3.14L99.02 7.90L100.85 7.90Q101.62 7.90 102.18 7.16Q102.74 6.43 102.74 5.26L102.74 5.26Q102.74 4.32 102.24 3.72Q101.74 3.12 100.85 3.12L100.85 3.12L99.02 3.14ZM112.13 16.97L109.42 16.97Q109.32 16.97 109.32 16.85L109.32 16.85L109.32 3.17L106.20 3.17Q106.08 3.17 106.08 3.05L106.08 3.05L106.10 0.36Q106.10 0.26 106.20 0.26L106.20 0.26L115.32 0.26Q115.44 0.26 115.44 0.36L115.44 0.36L115.44 3.05Q115.44 3.17 115.34 3.17L115.34 3.17L112.20 3.17L112.22 16.85Q112.22 16.97 112.13 16.97L112.13 16.97ZM120.82 17.21L120.82 17.21Q119.52 17.21 118.45 16.55Q117.38 15.89 116.74 14.80Q116.09 13.70 116.09 12.38L116.09 12.38L116.11 4.78Q116.11 3.46 116.75 2.38Q117.38 1.30 118.46 0.65Q119.54 0 120.82 0L120.82 0Q122.11 0 123.17 0.65Q124.22 1.30 124.86 2.38Q125.50 3.46 125.50 4.78L125.50 4.78L125.52 12.38Q125.52 13.70 124.88 14.80Q124.25 15.89 123.18 16.55Q122.11 17.21 120.82 17.21ZM120.82 14.30L120.82 14.30Q121.54 14.30 122.08 13.72Q122.62 13.13 122.62 12.38L122.62 12.38L122.59 4.78Q122.59 3.98 122.09 3.43Q121.58 2.88 120.82 2.88L120.82 2.88Q120.07 2.88 119.54 3.42Q119.02 3.96 119.02 4.78L119.02 4.78L119.02 12.38Q119.02 13.18 119.54 13.74Q120.07 14.30 120.82 14.30Z" transform="translate(36, 9.516)"></path></svg>